<?xml version="1.0" encoding="UTF-8" standalone="no"?>
<!DOCTYPE svg PUBLIC "-//W3C//DTD SVG 1.1//EN"
 "http://www.w3.org/Graphics/SVG/1.1/DTD/svg11.dtd">
<!-- Generated by graphviz version 2.38.0 (20140413.2041)
 -->
<!-- Title: %3 Pages: 1 -->
<svg width="245pt" height="44pt"
 viewBox="0.00 0.00 245.00 44.00" xmlns="http://www.w3.org/2000/svg" xmlns:xlink="http://www.w3.org/1999/xlink">
<g id="graph0" class="graph" transform="scale(1 1) rotate(0) translate(4 40)">
<title>%3</title>
<polygon fill="white" stroke="none" points="-4,4 -4,-40 241,-40 241,4 -4,4"/>
<!-- libc -->
<g id="node1" class="node"><title>libc</title>
<polygon fill="none" stroke="black" points="54,-36 0,-36 0,-0 54,-0 54,-36"/>
<text text-anchor="middle" x="27" y="-14.3" font-family="Times,serif" font-size="14.00">libc</text>
</g>
<!-- openssl -->
<g id="node2" class="node"><title>openssl</title>
<polygon fill="none" stroke="black" points="147,-36 90,-36 90,-0 147,-0 147,-36"/>
<text text-anchor="middle" x="118.5" y="-14.3" font-family="Times,serif" font-size="14.00">openssl</text>
</g>
<!-- libc&#45;&gt;openssl -->
<g id="edge1" class="edge"><title>libc&#45;&gt;openssl</title>
<path fill="none" stroke="black" d="M64.4028,-18C72.8668,-18 81.7437,-18 89.764,-18"/>
<polygon fill="black" stroke="black" points="64.3689,-14.5001 54.3689,-18 64.3688,-21.5001 64.3689,-14.5001"/>
</g>
<!-- nginx -->
<g id="node3" class="node"><title>nginx</title>
<polygon fill="none" stroke="black" points="237,-36 183,-36 183,-0 237,-0 237,-36"/>
<text text-anchor="middle" x="210" y="-14.3" font-family="Times,serif" font-size="14.00">nginx</text>
</g>
<!-- openssl&#45;&gt;nginx -->
<g id="edge2" class="edge"><title>openssl&#45;&gt;nginx</title>
<path fill="none" stroke="black" d="M157.455,-18C165.963,-18 174.807,-18 182.718,-18"/>
<polygon fill="black" stroke="black" points="157.328,-14.5001 147.328,-18 157.328,-21.5001 157.328,-14.5001"/>
</g>
</g>
</svg>
