<?xml version="1.0" encoding="UTF-8" standalone="no"?>
<!DOCTYPE svg PUBLIC "-//W3C//DTD SVG 1.1//EN"
 "http://www.w3.org/Graphics/SVG/1.1/DTD/svg11.dtd">
<!-- Generated by graphviz version 2.38.0 (20140413.2041)
 -->
<!-- Title: %3 Pages: 1 -->
<svg width="245pt" height="46pt"
 viewBox="0.00 0.00 245.00 46.00" xmlns="http://www.w3.org/2000/svg" xmlns:xlink="http://www.w3.org/1999/xlink">
<g id="graph0" class="graph" transform="scale(1 1) rotate(0) translate(4 42)">
<title>%3</title>
<polygon fill="white" stroke="none" points="-4,4 -4,-42 241,-42 241,4 -4,4"/>
<!-- libc -->
<g id="node1" class="node"><title>libc</title>
<polygon fill="#ff0000" stroke="black" points="54,-38 0,-38 0,-0 54,-0 54,-38"/>
<text text-anchor="middle" x="27" y="-22.8" font-family="Times,serif" font-size="14.00">buggy</text>
<text text-anchor="middle" x="27" y="-7.8" font-family="Times,serif" font-size="14.00">libc</text>
</g>
<!-- openssl -->
<g id="node2" class="node"><title>openssl</title>
<polygon fill="none" stroke="black" points="147,-37 90,-37 90,-1 147,-1 147,-37"/>
<text text-anchor="middle" x="118.5" y="-15.3" font-family="Times,serif" font-size="14.00">openssl</text>
</g>
<!-- libc&#45;&gt;openssl -->
<g id="edge1" class="edge"><title>libc&#45;&gt;openssl</title>
<path fill="none" stroke="black" d="M64.4028,-19C72.8668,-19 81.7437,-19 89.764,-19"/>
<polygon fill="black" stroke="black" points="64.3689,-15.5001 54.3689,-19 64.3688,-22.5001 64.3689,-15.5001"/>
</g>
<!-- nginx -->
<g id="node3" class="node"><title>nginx</title>
<polygon fill="none" stroke="black" points="237,-37 183,-37 183,-1 237,-1 237,-37"/>
<text text-anchor="middle" x="210" y="-15.3" font-family="Times,serif" font-size="14.00">nginx</text>
</g>
<!-- openssl&#45;&gt;nginx -->
<g id="edge2" class="edge"><title>openssl&#45;&gt;nginx</title>
<path fill="none" stroke="black" d="M157.455,-19C165.963,-19 174.807,-19 182.718,-19"/>
<polygon fill="black" stroke="black" points="157.328,-15.5001 147.328,-19 157.328,-22.5001 157.328,-15.5001"/>
</g>
</g>
</svg>
