<?xml version="1.0" encoding="UTF-8" standalone="no"?>
<!DOCTYPE svg PUBLIC "-//W3C//DTD SVG 1.1//EN"
 "http://www.w3.org/Graphics/SVG/1.1/DTD/svg11.dtd">
<!-- Generated by graphviz version 2.38.0 (20140413.2041)
 -->
<!-- Title: %3 Pages: 1 -->
<svg width="293pt" height="46pt"
 viewBox="0.00 0.00 293.00 46.00" xmlns="http://www.w3.org/2000/svg" xmlns:xlink="http://www.w3.org/1999/xlink">
<g id="graph0" class="graph" transform="scale(1 1) rotate(0) translate(4 42)">
<title>%3</title>
<polygon fill="white" stroke="none" points="-4,4 -4,-42 289,-42 289,4 -4,4"/>
<!-- libc -->
<g id="node1" class="node"><title>libc</title>
<polygon fill="#00dd00" stroke="black" points="71,-38 0,-38 0,-0 71,-0 71,-38"/>
<text text-anchor="middle" x="35.5" y="-22.8" font-family="Times,serif" font-size="14.00">recompile</text>
<text text-anchor="middle" x="35.5" y="-7.8" font-family="Times,serif" font-size="14.00">libc</text>
</g>
<!-- openssl -->
<g id="node2" class="node"><title>openssl</title>
<polygon fill="#aaaaaa" stroke="black" points="178,-38 107,-38 107,-0 178,-0 178,-38"/>
<text text-anchor="middle" x="142.5" y="-22.8" font-family="Times,serif" font-size="14.00">recompile</text>
<text text-anchor="middle" x="142.5" y="-7.8" font-family="Times,serif" font-size="14.00">openssl</text>
</g>
<!-- libc&#45;&gt;openssl -->
<g id="edge1" class="edge"><title>libc&#45;&gt;openssl</title>
<path fill="none" stroke="black" d="M81.3784,-19C89.9084,-19 98.7126,-19 106.864,-19"/>
<polygon fill="black" stroke="black" points="81.172,-15.5001 71.1719,-19 81.1719,-22.5001 81.172,-15.5001"/>
</g>
<!-- nginx -->
<g id="node3" class="node"><title>nginx</title>
<polygon fill="#aaaaaa" stroke="black" points="285,-38 214,-38 214,-0 285,-0 285,-38"/>
<text text-anchor="middle" x="249.5" y="-22.8" font-family="Times,serif" font-size="14.00">recompile</text>
<text text-anchor="middle" x="249.5" y="-7.8" font-family="Times,serif" font-size="14.00">nginx</text>
</g>
<!-- openssl&#45;&gt;nginx -->
<g id="edge2" class="edge"><title>openssl&#45;&gt;nginx</title>
<path fill="none" stroke="black" d="M188.378,-19C196.908,-19 205.713,-19 213.864,-19"/>
<polygon fill="black" stroke="black" points="188.172,-15.5001 178.172,-19 188.172,-22.5001 188.172,-15.5001"/>
</g>
</g>
</svg>
